<?xml version="1.0" encoding="utf-8"?>
<!-- Generator: Adobe Illustrator 27.1.1, SVG Export Plug-In . SVG Version: 6.00 Build 0)  -->
<svg version="1.1" id="Layer_1" xmlns="http://www.w3.org/2000/svg" xmlns:xlink="http://www.w3.org/1999/xlink" x="0px" y="0px"
	 viewBox="0 0 38.24 29.5" style="enable-background:new 0 0 38.24 29.5;" xml:space="preserve">
<style type="text/css">
	.st0{fill:#4E2211;}
</style>
<g>
	<g>
		<g>
			<path class="st0" d="M3.62,7.5c10.33,0,20.67,0,31,0c4.83,0,4.83-7.5,0-7.5c-10.33,0-20.67,0-31,0C-1.2,0-1.21,7.5,3.62,7.5
				L3.62,7.5z"/>
		</g>
	</g>
	<g>
		<g>
			<path class="st0" d="M3.62,18.5c10.33,0,20.67,0,31,0c4.83,0,4.83-7.5,0-7.5c-10.33,0-20.67,0-31,0C-1.2,11-1.21,18.5,3.62,18.5
				L3.62,18.5z"/>
		</g>
	</g>
	<g>
		<g>
			<path class="st0" d="M3.62,29.5c10.33,0,20.67,0,31,0c4.83,0,4.83-7.5,0-7.5c-10.33,0-20.67,0-31,0C-1.2,22-1.21,29.5,3.62,29.5
				L3.62,29.5z"/>
		</g>
	</g>
</g>
</svg>
