<?xml version="1.0" encoding="utf-8"?>
<!-- Generator: Adobe Illustrator 27.1.1, SVG Export Plug-In . SVG Version: 6.00 Build 0)  -->
<svg version="1.1" id="Layer_1" xmlns="http://www.w3.org/2000/svg" xmlns:xlink="http://www.w3.org/1999/xlink" x="0px" y="0px"
	 viewBox="0 0 1080 1080" style="enable-background:new 0 0 1080 1080;" xml:space="preserve">
<style type="text/css">
	.st0{fill:#4E2211;}
</style>
<g>
	<g>
		<g>
			<path class="st0" d="M524.21,532.83c10.33,0,20.67,0,31,0c4.83,0,4.83-7.5,0-7.5c-10.33,0-20.67,0-31,0
				C519.39,525.33,519.38,532.83,524.21,532.83L524.21,532.83z"/>
		</g>
	</g>
	<g>
		<g>
			<path class="st0" d="M524.21,543.83c10.33,0,20.67,0,31,0c4.83,0,4.83-7.5,0-7.5c-10.33,0-20.67,0-31,0
				C519.39,536.33,519.38,543.83,524.21,543.83L524.21,543.83z"/>
		</g>
	</g>
	<g>
		<g>
			<path class="st0" d="M524.21,554.83c10.33,0,20.67,0,31,0c4.83,0,4.83-7.5,0-7.5c-10.33,0-20.67,0-31,0
				C519.39,547.33,519.38,554.83,524.21,554.83L524.21,554.83z"/>
		</g>
	</g>
</g>
</svg>
