<?xml version="1.0" encoding="utf-8"?>
<!-- Generator: Adobe Illustrator 27.1.1, SVG Export Plug-In . SVG Version: 6.00 Build 0)  -->
<svg version="1.1" id="Layer_1" xmlns="http://www.w3.org/2000/svg" xmlns:xlink="http://www.w3.org/1999/xlink" x="0px" y="0px"
	 viewBox="0 0 567.01 434.61" style="enable-background:new 0 0 567.01 434.61;" xml:space="preserve">
<style type="text/css">
	.st0{fill:#4E2211;}
</style>
<g>
	<g>
		<g>
			<path class="st0" d="M55.26,110.55c15.19,0,30.38,0,45.57,0c36.3,0,72.6,0,108.9,0c43.89,0,87.79,0,131.68,0
				c38.09,0,76.17,0,114.26,0c18.43,0,36.87,0.24,55.3,0c0.26,0,0.52,0,0.78,0c14.16,0,29.03-6.16,39.05-16.17
				c9.58-9.58,16.79-25.29,16.17-39.05c-0.64-14.28-5.33-29.09-16.17-39.05c-10.8-9.92-24.08-16.17-39.05-16.17
				c-15.19,0-30.38,0-45.57,0c-36.3,0-72.6,0-108.9,0c-43.89,0-87.79,0-131.68,0c-38.08,0-76.17,0-114.25,0
				c-18.43,0-36.87-0.24-55.3,0c-0.26,0-0.52,0-0.78,0c-14.16,0-29.03,6.16-39.05,16.17C6.63,25.86-0.58,41.57,0.04,55.33
				c0.64,14.28,5.33,29.09,16.17,39.05C27.01,104.29,40.3,110.55,55.26,110.55L55.26,110.55z"/>
		</g>
	</g>
	<g>
		<g>
			<path class="st0" d="M55.26,272.53c15.19,0,30.38,0,45.57,0c36.3,0,72.6,0,108.9,0c43.89,0,87.79,0,131.68,0
				c38.09,0,76.17,0,114.26,0c18.43,0,36.87,0.24,55.3,0c0.26,0,0.52,0,0.78,0c14.16,0,29.03-6.16,39.05-16.17
				c9.58-9.58,16.79-25.29,16.17-39.05c-0.64-14.28-5.33-29.09-16.17-39.05c-10.8-9.92-24.08-16.17-39.05-16.17
				c-15.19,0-30.38,0-45.57,0c-36.3,0-72.6,0-108.9,0c-43.89,0-87.79,0-131.68,0c-38.08,0-76.17,0-114.25,0
				c-18.43,0-36.87-0.24-55.3,0c-0.26,0-0.52,0-0.78,0c-14.16,0-29.03,6.16-39.05,16.17c-9.58,9.58-16.79,25.29-16.17,39.05
				c0.64,14.28,5.33,29.09,16.17,39.05C27.01,266.27,40.3,272.53,55.26,272.53L55.26,272.53z"/>
		</g>
	</g>
	<g>
		<g>
			<path class="st0" d="M55.26,434.51c15.19,0,30.38,0,45.57,0c36.3,0,72.6,0,108.9,0c43.89,0,87.79,0,131.68,0
				c38.09,0,76.17,0,114.26,0c18.43,0,36.87,0.24,55.3,0c0.26,0,0.52,0,0.78,0c14.16,0,29.03-6.16,39.05-16.17
				c9.58-9.58,16.79-25.29,16.17-39.05c-0.64-14.28-5.33-29.09-16.17-39.05c-10.8-9.92-24.08-16.17-39.05-16.17
				c-15.19,0-30.38,0-45.57,0c-36.3,0-72.6,0-108.9,0c-43.89,0-87.79,0-131.68,0c-38.08,0-76.17,0-114.25,0
				c-18.43,0-36.87-0.24-55.3,0c-0.26,0-0.52,0-0.78,0c-14.16,0-29.03,6.16-39.05,16.17c-9.58,9.58-16.79,25.29-16.17,39.05
				c0.64,14.28,5.33,29.09,16.17,39.05C27.01,428.25,40.3,434.51,55.26,434.51L55.26,434.51z"/>
		</g>
	</g>
</g>
</svg>
